<mxfile host="app.diagrams.net" agent="Mozilla/5.0 (Macintosh; Intel Mac OS X 10.15; rv:133.0) Gecko/20100101 Firefox/133.0" version="26.0.5">
  <diagram name="Page-1" id="lXaNqZM-0Tj3juV3bvDM">
    <mxGraphModel dx="1434" dy="830" grid="1" gridSize="10" guides="1" tooltips="1" connect="1" arrows="1" fold="1" page="1" pageScale="1" pageWidth="850" pageHeight="1100" math="0" shadow="0">
      <root>
        <mxCell id="0" />
        <mxCell id="1" parent="0" />
        <mxCell id="vBaHfqE5TDyvZSrMxQp3-10" style="edgeStyle=orthogonalEdgeStyle;rounded=0;orthogonalLoop=1;jettySize=auto;html=1;exitX=1;exitY=0.5;exitDx=0;exitDy=0;entryX=0;entryY=0.5;entryDx=0;entryDy=0;strokeColor=#CC6600;strokeWidth=3;startArrow=classic;startFill=1;" parent="1" source="vBaHfqE5TDyvZSrMxQp3-1" target="vBaHfqE5TDyvZSrMxQp3-3" edge="1">
          <mxGeometry relative="1" as="geometry">
            <Array as="points">
              <mxPoint x="510" y="170" />
              <mxPoint x="510" y="170" />
            </Array>
          </mxGeometry>
        </mxCell>
        <mxCell id="vBaHfqE5TDyvZSrMxQp3-52" value="enx00249b6c6acd" style="edgeLabel;html=1;align=center;verticalAlign=middle;resizable=0;points=[];fontSize=14;" parent="vBaHfqE5TDyvZSrMxQp3-10" vertex="1" connectable="0">
          <mxGeometry x="-0.037" y="1" relative="1" as="geometry">
            <mxPoint x="-16" y="-39" as="offset" />
          </mxGeometry>
        </mxCell>
        <mxCell id="_xUKE3sM2rI7NT-TXMz9-5" value="192.168.1.100" style="edgeLabel;html=1;align=center;verticalAlign=middle;resizable=0;points=[];rotation=90;" parent="vBaHfqE5TDyvZSrMxQp3-10" vertex="1" connectable="0">
          <mxGeometry x="-0.6963" y="-1" relative="1" as="geometry">
            <mxPoint y="-1" as="offset" />
          </mxGeometry>
        </mxCell>
        <mxCell id="vBaHfqE5TDyvZSrMxQp3-1" value="&lt;div&gt;Dell&lt;/div&gt;&lt;div&gt;192.168.4.2&lt;/div&gt;&lt;div&gt;ROS 2 Humble&lt;br&gt;&lt;/div&gt;" style="rounded=0;whiteSpace=wrap;html=1;fillColor=#d5e8d4;strokeColor=#82b366;" parent="1" vertex="1">
          <mxGeometry x="220" y="140" width="120" height="60" as="geometry" />
        </mxCell>
        <mxCell id="vBaHfqE5TDyvZSrMxQp3-3" value="&lt;div&gt;Hesai&lt;/div&gt;&lt;div&gt;192.168.1.201&lt;br&gt;&lt;/div&gt;" style="rounded=1;whiteSpace=wrap;html=1;" parent="1" vertex="1">
          <mxGeometry x="510" y="140" width="120" height="60" as="geometry" />
        </mxCell>
        <mxCell id="vBaHfqE5TDyvZSrMxQp3-27" style="edgeStyle=orthogonalEdgeStyle;rounded=0;orthogonalLoop=1;jettySize=auto;html=1;exitX=0;exitY=0.5;exitDx=0;exitDy=0;startArrow=classic;startFill=1;strokeWidth=3;strokeColor=#CC6600;" parent="1" source="vBaHfqE5TDyvZSrMxQp3-16" target="vBaHfqE5TDyvZSrMxQp3-17" edge="1">
          <mxGeometry relative="1" as="geometry" />
        </mxCell>
        <mxCell id="vBaHfqE5TDyvZSrMxQp3-46" style="edgeStyle=orthogonalEdgeStyle;rounded=0;orthogonalLoop=1;jettySize=auto;html=1;exitX=1;exitY=0.5;exitDx=0;exitDy=0;strokeWidth=3;strokeColor=#CC6600;startArrow=classic;startFill=1;entryX=0;entryY=0.5;entryDx=0;entryDy=0;" parent="1" source="vBaHfqE5TDyvZSrMxQp3-16" edge="1" target="vBaHfqE5TDyvZSrMxQp3-50">
          <mxGeometry relative="1" as="geometry">
            <mxPoint x="470" y="30" as="targetPoint" />
            <Array as="points" />
          </mxGeometry>
        </mxCell>
        <mxCell id="vBaHfqE5TDyvZSrMxQp3-16" value="&lt;div&gt;Router&lt;br&gt;&lt;/div&gt;&lt;div&gt;192.168.4.1/24&lt;/div&gt;" style="rounded=0;whiteSpace=wrap;html=1;fillColor=#b1ddf0;strokeColor=#10739e;" parent="1" vertex="1">
          <mxGeometry x="260" width="120" height="60" as="geometry" />
        </mxCell>
        <mxCell id="vBaHfqE5TDyvZSrMxQp3-32" style="edgeStyle=orthogonalEdgeStyle;rounded=0;orthogonalLoop=1;jettySize=auto;html=1;strokeWidth=3;strokeColor=#CC6600;startArrow=classic;startFill=1;entryX=0.5;entryY=0;entryDx=0;entryDy=0;exitX=0.75;exitY=1;exitDx=0;exitDy=0;" parent="1" source="vBaHfqE5TDyvZSrMxQp3-17" target="vBaHfqE5TDyvZSrMxQp3-1" edge="1">
          <mxGeometry relative="1" as="geometry">
            <Array as="points">
              <mxPoint x="150" y="100" />
              <mxPoint x="280" y="100" />
            </Array>
            <mxPoint x="120" y="60" as="sourcePoint" />
          </mxGeometry>
        </mxCell>
        <mxCell id="vBaHfqE5TDyvZSrMxQp3-51" value="&lt;font style=&quot;font-size: 14px;&quot;&gt;enp1s0&lt;/font&gt;" style="edgeLabel;html=1;align=center;verticalAlign=middle;resizable=0;points=[];fontSize=14;" parent="vBaHfqE5TDyvZSrMxQp3-32" vertex="1" connectable="0">
          <mxGeometry x="-0.1185" y="-4" relative="1" as="geometry">
            <mxPoint x="43" y="-4" as="offset" />
          </mxGeometry>
        </mxCell>
        <mxCell id="vBaHfqE5TDyvZSrMxQp3-17" value="&lt;div&gt;Switch&lt;br&gt;&lt;/div&gt;&lt;div&gt;no IP address&lt;br&gt;&lt;/div&gt;" style="rounded=0;whiteSpace=wrap;html=1;fillColor=#b1ddf0;strokeColor=#10739e;" parent="1" vertex="1">
          <mxGeometry x="60" width="120" height="60" as="geometry" />
        </mxCell>
        <mxCell id="vBaHfqE5TDyvZSrMxQp3-50" value="WAN" style="rounded=0;whiteSpace=wrap;html=1;fillColor=#fad7ac;strokeColor=#b46504;" parent="1" vertex="1">
          <mxGeometry x="500" width="120" height="60" as="geometry" />
        </mxCell>
        <mxCell id="_aGCWSjMHAEwKCY4_UuJ-2" value="" style="edgeStyle=orthogonalEdgeStyle;rounded=0;orthogonalLoop=1;jettySize=auto;html=1;exitX=0.25;exitY=1;exitDx=0;exitDy=0;strokeWidth=3;strokeColor=#CC6600;startArrow=classic;startFill=1;entryX=0.5;entryY=0;entryDx=0;entryDy=0;" edge="1" parent="1" source="vBaHfqE5TDyvZSrMxQp3-17" target="_aGCWSjMHAEwKCY4_UuJ-1">
          <mxGeometry relative="1" as="geometry">
            <Array as="points" />
            <mxPoint x="90" y="60" as="sourcePoint" />
            <mxPoint x="120" y="200" as="targetPoint" />
          </mxGeometry>
        </mxCell>
        <mxCell id="_aGCWSjMHAEwKCY4_UuJ-1" value="&lt;div&gt;Kinova Arm&lt;/div&gt;&lt;div&gt;192.168.4.4&lt;br&gt;&lt;/div&gt;" style="rounded=1;whiteSpace=wrap;html=1;" vertex="1" parent="1">
          <mxGeometry x="60" y="140" width="120" height="60" as="geometry" />
        </mxCell>
        <mxCell id="_aGCWSjMHAEwKCY4_UuJ-3" value="&lt;div&gt;Unify mesh&lt;br&gt;&lt;/div&gt;&lt;div&gt;192.168.254.1/24&lt;br&gt;&lt;/div&gt;" style="rounded=0;whiteSpace=wrap;html=1;fillColor=#b1ddf0;strokeColor=#10739e;" vertex="1" parent="1">
          <mxGeometry x="60" y="250" width="120" height="60" as="geometry" />
        </mxCell>
        <mxCell id="_aGCWSjMHAEwKCY4_UuJ-5" style="edgeStyle=orthogonalEdgeStyle;rounded=0;orthogonalLoop=1;jettySize=auto;html=1;strokeWidth=3;strokeColor=#CC6600;startArrow=classic;startFill=1;entryX=0.5;entryY=0;entryDx=0;entryDy=0;exitX=0.5;exitY=1;exitDx=0;exitDy=0;" edge="1" parent="1" source="vBaHfqE5TDyvZSrMxQp3-1" target="_aGCWSjMHAEwKCY4_UuJ-3">
          <mxGeometry relative="1" as="geometry">
            <Array as="points">
              <mxPoint x="280" y="230" />
              <mxPoint x="120" y="230" />
            </Array>
            <mxPoint x="320" y="220" as="sourcePoint" />
            <mxPoint x="450" y="300" as="targetPoint" />
          </mxGeometry>
        </mxCell>
        <mxCell id="_aGCWSjMHAEwKCY4_UuJ-6" value="wlx00e04c4f97ff" style="edgeLabel;html=1;align=center;verticalAlign=middle;resizable=0;points=[];fontSize=14;" vertex="1" connectable="0" parent="_aGCWSjMHAEwKCY4_UuJ-5">
          <mxGeometry x="-0.1185" y="-4" relative="1" as="geometry">
            <mxPoint x="-35" y="4" as="offset" />
          </mxGeometry>
        </mxCell>
        <mxCell id="_aGCWSjMHAEwKCY4_UuJ-7" value="192.168.254.8" style="text;whiteSpace=wrap;fontSize=11;rotation=90;" vertex="1" parent="1">
          <mxGeometry x="240" y="240" width="110" height="40" as="geometry" />
        </mxCell>
      </root>
    </mxGraphModel>
  </diagram>
</mxfile>
